<svg height="1118" width="720" xmlns="http://www.w3.org/2000/svg">
<rect height="1118" fill="#555" width="720"></rect>
<text fill="#7f7" font-family="Courier New" font-size="12" xml:space="preserve">
<tspan x="10" y="26">6 megabytes installed</tspan>
<tspan x="10" y="42"></tspan>
<tspan x="10" y="58">node_modules</tspan>
<tspan x="10" y="74">├── UNMET PEER DEPENDENCY grunt@&gt;=0.4.0</tspan>
<tspan x="10" y="90">└─┬ grunt-lintspaces@0.8.1 </tspan>
<tspan x="10" y="106">  ├─┬ junitwriter@0.3.1 </tspan>
<tspan x="10" y="122">  │ ├─┬ dateformat@1.0.11 </tspan>
<tspan x="10" y="138">  │ │ ├── get-stdin@5.0.1 </tspan>
<tspan x="10" y="154">  │ │ └─┬ meow@3.7.0 </tspan>
<tspan x="10" y="170">  │ │   ├─┬ camelcase-keys@2.1.0 </tspan>
<tspan x="10" y="186">  │ │   │ └── camelcase@2.1.1 </tspan>
<tspan x="10" y="202">  │ │   ├── decamelize@1.2.0 </tspan>
<tspan x="10" y="218">  │ │   ├─┬ loud-rejection@1.6.0 </tspan>
<tspan x="10" y="234">  │ │   │ ├─┬ currently-unhandled@0.4.1 </tspan>
<tspan x="10" y="250">  │ │   │ │ └── array-find-index@1.0.2 </tspan>
<tspan x="10" y="266">  │ │   │ └── signal-exit@3.0.2 </tspan>
<tspan x="10" y="282">  │ │   ├── map-obj@1.0.1 </tspan>
<tspan x="10" y="298">  │ │   ├─┬ normalize-package-data@2.3.8 </tspan>
<tspan x="10" y="314">  │ │   │ ├── hosted-git-info@2.4.2 </tspan>
<tspan x="10" y="330">  │ │   │ ├─┬ is-builtin-module@1.0.0 </tspan>
<tspan x="10" y="346">  │ │   │ │ └── builtin-modules@1.1.1 </tspan>
<tspan x="10" y="362">  │ │   │ ├── semver@5.3.0 </tspan>
<tspan x="10" y="378">  │ │   │ └─┬ validate-npm-package-license@3.0.1 </tspan>
<tspan x="10" y="394">  │ │   │   ├─┬ spdx-correct@1.0.2 </tspan>
<tspan x="10" y="410">  │ │   │   │ └── spdx-license-ids@1.2.2 </tspan>
<tspan x="10" y="426">  │ │   │   └── spdx-expression-parse@1.0.4 </tspan>
<tspan x="10" y="442">  │ │   ├── object-assign@4.1.1 </tspan>
<tspan x="10" y="458">  │ │   ├─┬ read-pkg-up@1.0.1 </tspan>
<tspan x="10" y="474">  │ │   │ ├─┬ find-up@1.1.2 </tspan>
<tspan x="10" y="490">  │ │   │ │ ├── path-exists@2.1.0 </tspan>
<tspan x="10" y="506">  │ │   │ │ └─┬ pinkie-promise@2.0.1 </tspan>
<tspan x="10" y="522">  │ │   │ │   └── pinkie@2.0.4 </tspan>
<tspan x="10" y="538">  │ │   │ └─┬ read-pkg@1.1.0 </tspan>
<tspan x="10" y="554">  │ │   │   ├─┬ load-json-file@1.1.0 </tspan>
<tspan x="10" y="570">  │ │   │   │ ├── graceful-fs@4.1.11 </tspan>
<tspan x="10" y="586">  │ │   │   │ ├─┬ parse-json@2.2.0 </tspan>
<tspan x="10" y="602">  │ │   │   │ │ └─┬ error-ex@1.3.1 </tspan>
<tspan x="10" y="618">  │ │   │   │ │   └── is-arrayish@0.2.1 </tspan>
<tspan x="10" y="634">  │ │   │   │ ├── pify@2.3.0 </tspan>
<tspan x="10" y="650">  │ │   │   │ └─┬ strip-bom@2.0.0 </tspan>
<tspan x="10" y="666">  │ │   │   │   └── is-utf8@0.2.1 </tspan>
<tspan x="10" y="682">  │ │   │   └── path-type@1.1.0 </tspan>
<tspan x="10" y="698">  │ │   ├─┬ redent@1.0.0 </tspan>
<tspan x="10" y="714">  │ │   │ ├─┬ indent-string@2.1.0 </tspan>
<tspan x="10" y="730">  │ │   │ │ └─┬ repeating@2.0.1 </tspan>
<tspan x="10" y="746">  │ │   │ │   └─┬ is-finite@1.0.2 </tspan>
<tspan x="10" y="762">  │ │   │ │     └── number-is-nan@1.0.1 </tspan>
<tspan x="10" y="778">  │ │   │ └─┬ strip-indent@1.0.1 </tspan>
<tspan x="10" y="794">  │ │   │   └── get-stdin@4.0.1 </tspan>
<tspan x="10" y="810">  │ │   └── trim-newlines@1.0.0 </tspan>
<tspan x="10" y="826">  │ ├── merge@1.2.0 </tspan>
<tspan x="10" y="842">  │ ├─┬ mkdirp@0.5.0 </tspan>
<tspan x="10" y="858">  │ │ └── minimist@0.0.8 </tspan>
<tspan x="10" y="874">  │ └─┬ xmlbuilder@2.6.2 </tspan>
<tspan x="10" y="890">  │   └── lodash@3.5.0 </tspan>
<tspan x="10" y="906">  └─┬ lintspaces@0.5.1 </tspan>
<tspan x="10" y="922">    ├─┬ editorconfig@0.13.2 </tspan>
<tspan x="10" y="938">    │ ├── bluebird@3.5.0 </tspan>
<tspan x="10" y="954">    │ ├─┬ commander@2.9.0 </tspan>
<tspan x="10" y="970">    │ │ └── graceful-readlink@1.0.1 </tspan>
<tspan x="10" y="986">    │ ├─┬ lru-cache@3.2.0 </tspan>
<tspan x="10" y="1002">    │ │ └── pseudomap@1.0.2 </tspan>
<tspan x="10" y="1018">    │ └── sigmund@1.0.1 </tspan>
<tspan x="10" y="1034">    └─┬ rc@1.1.6 </tspan>
<tspan x="10" y="1050">      ├── deep-extend@0.4.1 </tspan>
<tspan x="10" y="1066">      ├── ini@1.3.4 </tspan>
<tspan x="10" y="1082">      ├── minimist@1.2.0 </tspan>
<tspan x="10" y="1098">      └── strip-json-comments@1.0.4</tspan>
</text>
</svg>
